<svg version="1.1" id="Layer_1" xmlns="http://www.w3.org/2000/svg" xmlns:xlink="http://www.w3.org/1999/xlink" x="0px" y="0px" viewBox="0 0 62.4 56.1" style="enable-background:new 0 0 62.4 56.1;" xml:space="preserve">
<style type="text/css">.st0{fill:#12100E;}.st1{fill:#FFFFFF;}</style>
<title>Bitbucket-icon-blue</title>
<g id="Page-1"><g id="Monogram"><rect id="Rectangle-path" x="3.1" y="0" class="st0" width="56.1" height="56.1"/><path id="Shape" class="st1" d="M16.5,18.8c0-0.5-0.1-0.9-0.5-1.2l-3.5-4.2v-0.6h10.9l8.5,18.5l7.4-18.5h10.4v0.6l-3,2.9 0.3,0.2-0.4,0.5-0.3,0.8v21.2c-0.1,0.3,0.1,0.6,0.3,0.8l2.9,2.9v0.6H34.9V42l3-3c0.3-0.3,0.3-0.4,0.3-0.8V21l-8.5,21.5h-1.1	L18.8,21v14.4c-0.1,0.6,0.1,1.2,0.5,1.7l4,4.8v0.6H12.1v-0.6l4-4.8c0.4-0.4,0.6-1.1,0.5-1.7V18.8z"/></g></g></svg>
